M48
; DRILL file {KiCad 9.0.2-2.fc42} date 2025-06-07T11:28:42-0500
; FORMAT={-:-/ absolute / metric / decimal}
; #@! TF.CreationDate,2025-06-07T11:28:42-05:00
; #@! TF.GenerationSoftware,Kicad,Pcbnew,9.0.2-2.fc42
; #@! TF.FileFunction,NonPlated,1,2,NPTH
FMAT,2
METRIC
; #@! TA.AperFunction,NonPlated,NPTH,ComponentDrill
T1C1.702
; #@! TA.AperFunction,NonPlated,NPTH,ComponentDrill
T2C3.988
%
G90
G05
T1
X71.92Y-53.565
X71.92Y-72.6
X71.92Y-91.8
X82.08Y-53.565
X82.08Y-72.6
X82.08Y-91.8
X91.0Y-53.565
X91.12Y-72.6
X91.12Y-91.8
X101.16Y-53.565
X101.28Y-72.6
X101.28Y-91.8
X110.12Y-53.565
X110.12Y-72.6
X110.12Y-91.8
X120.28Y-53.565
X120.28Y-72.6
X120.28Y-91.8
X129.12Y-53.6
X129.12Y-72.8
X129.12Y-92.0
X139.28Y-53.6
X139.28Y-72.8
X139.28Y-92.0
T2
X77.0Y-53.565
X77.0Y-72.6
X77.0Y-91.8
X96.08Y-53.565
X96.2Y-72.6
X96.2Y-91.8
X115.2Y-53.565
X115.2Y-72.6
X115.2Y-91.8
X134.2Y-53.6
X134.2Y-72.8
X134.2Y-92.0
M30
