%TF.GenerationSoftware,KiCad,Pcbnew,9.0.2-2.fc42*%
%TF.CreationDate,2025-06-07T11:28:52-05:00*%
%TF.ProjectId,macro_pad,6d616372-6f5f-4706-9164-2e6b69636164,rev?*%
%TF.SameCoordinates,Original*%
%TF.FileFunction,Copper,L2,Bot*%
%TF.FilePolarity,Positive*%
%FSLAX46Y46*%
G04 Gerber Fmt 4.6, Leading zero omitted, Abs format (unit mm)*
G04 Created by KiCad (PCBNEW 9.0.2-2.fc42) date 2025-06-07 11:28:52*
%MOMM*%
%LPD*%
G01*
G04 APERTURE LIST*
G04 Aperture macros list*
%AMRoundRect*
0 Rectangle with rounded corners*
0 $1 Rounding radius*
0 $2 $3 $4 $5 $6 $7 $8 $9 X,Y pos of 4 corners*
0 Add a 4 corners polygon primitive as box body*
4,1,4,$2,$3,$4,$5,$6,$7,$8,$9,$2,$3,0*
0 Add four circle primitives for the rounded corners*
1,1,$1+$1,$2,$3*
1,1,$1+$1,$4,$5*
1,1,$1+$1,$6,$7*
1,1,$1+$1,$8,$9*
0 Add four rect primitives between the rounded corners*
20,1,$1+$1,$2,$3,$4,$5,0*
20,1,$1+$1,$4,$5,$6,$7,0*
20,1,$1+$1,$6,$7,$8,$9,0*
20,1,$1+$1,$8,$9,$2,$3,0*%
G04 Aperture macros list end*
%TA.AperFunction,ComponentPad*%
%ADD10C,1.500000*%
%TD*%
%TA.AperFunction,ComponentPad*%
%ADD11R,2.000000X2.000000*%
%TD*%
%TA.AperFunction,ComponentPad*%
%ADD12C,2.000000*%
%TD*%
%TA.AperFunction,ComponentPad*%
%ADD13R,3.200000X2.000000*%
%TD*%
%TA.AperFunction,ComponentPad*%
%ADD14C,1.524000*%
%TD*%
%TA.AperFunction,ComponentPad*%
%ADD15C,2.300000*%
%TD*%
%TA.AperFunction,ComponentPad*%
%ADD16R,1.700000X1.700000*%
%TD*%
%TA.AperFunction,ComponentPad*%
%ADD17O,1.700000X1.700000*%
%TD*%
%TA.AperFunction,ComponentPad*%
%ADD18RoundRect,0.250000X-0.550000X0.550000X-0.550000X-0.550000X0.550000X-0.550000X0.550000X0.550000X0*%
%TD*%
%TA.AperFunction,ComponentPad*%
%ADD19C,1.600000*%
%TD*%
%TA.AperFunction,ViaPad*%
%ADD20C,0.600000*%
%TD*%
%TA.AperFunction,Conductor*%
%ADD21C,0.200000*%
%TD*%
G04 APERTURE END LIST*
D10*
%TO.P,SW13,*%
%TO.N,*%
X142175000Y-26100000D03*
X142175000Y-31100000D03*
D11*
%TO.P,SW13,A,A*%
%TO.N,RotEncodeA*%
X127675000Y-26100000D03*
D12*
%TO.P,SW13,B,B*%
%TO.N,RotEncodeB*%
X127675000Y-31100000D03*
%TO.P,SW13,C,C*%
%TO.N,GND*%
X127675000Y-28600000D03*
D13*
%TO.P,SW13,MP*%
%TO.N,N/C*%
X135175000Y-23000000D03*
X135175000Y-34200000D03*
%TD*%
D14*
%TO.P,U1,1,GPIO26/ADC0/A0*%
%TO.N,RotEncodeA*%
X101580000Y-22148500D03*
%TO.P,U1,2,GPIO27/ADC1/A1*%
%TO.N,RotEncodeB*%
X101580000Y-24688500D03*
%TO.P,U1,3,GPIO28/ADC2/A2*%
%TO.N,OLED SCL*%
X101580000Y-27228500D03*
%TO.P,U1,4,GPIO29/ADC3/A3*%
%TO.N,OLED SDA*%
X101580000Y-29768500D03*
%TO.P,U1,5,GPIO6/SDA*%
%TO.N,Col 1*%
X101580000Y-32308500D03*
%TO.P,U1,6,GPIO7/SCL*%
%TO.N,Col 2*%
X101580000Y-34848500D03*
%TO.P,U1,7,GPIO0/TX*%
%TO.N,Col 3*%
X101580000Y-37388500D03*
%TO.P,U1,8,GPIO1/RX*%
%TO.N,Row 3*%
X116820000Y-37388500D03*
%TO.P,U1,9,GPIO2/SCK*%
%TO.N,Row 2*%
X116820000Y-34848500D03*
%TO.P,U1,10,GPIO4/MISO*%
%TO.N,Row 1*%
X116820000Y-32308500D03*
%TO.P,U1,11,GPIO3/MOSI*%
%TO.N,LED Data*%
X116820000Y-29768500D03*
%TO.P,U1,12,3V3*%
%TO.N,+3.3V*%
X116820000Y-27228500D03*
%TO.P,U1,13,GND*%
%TO.N,GND*%
X116820000Y-24688500D03*
%TO.P,U1,14,VBUS*%
%TO.N,+5V*%
X116820000Y-22148500D03*
%TD*%
D15*
%TO.P,SW12,1,1*%
%TO.N,Net-(D17-A)*%
X130390000Y-89460000D03*
%TO.P,SW12,2,2*%
%TO.N,Col 4*%
X136740000Y-86920000D03*
%TD*%
%TO.P,SW11,1,1*%
%TO.N,Net-(D30-A)*%
X130390000Y-70260000D03*
%TO.P,SW11,2,2*%
%TO.N,Col 3*%
X136740000Y-67720000D03*
%TD*%
%TO.P,SW10,1,1*%
%TO.N,Net-(D31-A)*%
X130390000Y-51060000D03*
%TO.P,SW10,2,2*%
%TO.N,Col 2*%
X136740000Y-48520000D03*
%TD*%
%TO.P,SW9,1,1*%
%TO.N,Net-(D32-A)*%
X111390000Y-51025000D03*
%TO.P,SW9,2,2*%
%TO.N,Col 1*%
X117740000Y-48485000D03*
%TD*%
%TO.P,SW8,1,1*%
%TO.N,Net-(D21-A)*%
X111390000Y-70060000D03*
%TO.P,SW8,2,2*%
%TO.N,Col 1*%
X117740000Y-67520000D03*
%TD*%
%TO.P,SW7,1,1*%
%TO.N,Net-(D22-A)*%
X111390000Y-89260000D03*
%TO.P,SW7,2,2*%
%TO.N,Col 1*%
X117740000Y-86720000D03*
%TD*%
%TO.P,SW6,1,1*%
%TO.N,Net-(D24-A)*%
X92390000Y-70060000D03*
%TO.P,SW6,2,2*%
%TO.N,Col 2*%
X98740000Y-67520000D03*
%TD*%
%TO.P,SW5,1,1*%
%TO.N,Net-(D20-A)*%
X92270000Y-51025000D03*
%TO.P,SW5,2,2*%
%TO.N,Col 3*%
X98620000Y-48485000D03*
%TD*%
%TO.P,SW4,1,1*%
%TO.N,Net-(D23-A)*%
X92390000Y-89260000D03*
%TO.P,SW4,2,2*%
%TO.N,Col 2*%
X98740000Y-86720000D03*
%TD*%
%TO.P,SW3,1,1*%
%TO.N,Net-(D19-A)*%
X73190000Y-89260000D03*
%TO.P,SW3,2,2*%
%TO.N,Col 4*%
X79540000Y-86720000D03*
%TD*%
%TO.P,SW2,1,1*%
%TO.N,Net-(D18-A)*%
X73190000Y-70060000D03*
%TO.P,SW2,2,2*%
%TO.N,Col 4*%
X79540000Y-67520000D03*
%TD*%
%TO.P,SW1,1,1*%
%TO.N,Net-(D29-A)*%
X73190000Y-51025000D03*
%TO.P,SW1,2,2*%
%TO.N,Col 3*%
X79540000Y-48485000D03*
%TD*%
D16*
%TO.P,J1,1,Pin_1*%
%TO.N,GND*%
X92400000Y-25920000D03*
D17*
%TO.P,J1,2,Pin_2*%
%TO.N,+3.3V*%
X92400000Y-28460000D03*
%TO.P,J1,3,Pin_3*%
%TO.N,OLED SCL*%
X92400000Y-31000000D03*
%TO.P,J1,4,Pin_4*%
%TO.N,OLED SDA*%
X92400000Y-33540000D03*
%TD*%
D18*
%TO.P,D32,1,K*%
%TO.N,Row 3*%
X124000000Y-107590000D03*
D19*
%TO.P,D32,2,A*%
%TO.N,Net-(D32-A)*%
X124000000Y-115210000D03*
%TD*%
D18*
%TO.P,D31,1,K*%
%TO.N,Row 3*%
X120450000Y-107590000D03*
D19*
%TO.P,D31,2,A*%
%TO.N,Net-(D31-A)*%
X120450000Y-115210000D03*
%TD*%
D18*
%TO.P,D30,1,K*%
%TO.N,Row 3*%
X116900000Y-107590000D03*
D19*
%TO.P,D30,2,A*%
%TO.N,Net-(D30-A)*%
X116900000Y-115210000D03*
%TD*%
D18*
%TO.P,D29,1,K*%
%TO.N,Row 2*%
X113350000Y-107590000D03*
D19*
%TO.P,D29,2,A*%
%TO.N,Net-(D29-A)*%
X113350000Y-115210000D03*
%TD*%
D18*
%TO.P,D24,1,K*%
%TO.N,Row 2*%
X109800000Y-107590000D03*
D19*
%TO.P,D24,2,A*%
%TO.N,Net-(D24-A)*%
X109800000Y-115210000D03*
%TD*%
D18*
%TO.P,D23,1,K*%
%TO.N,Row 1*%
X106250000Y-107590000D03*
D19*
%TO.P,D23,2,A*%
%TO.N,Net-(D23-A)*%
X106250000Y-115210000D03*
%TD*%
D18*
%TO.P,D22,1,K*%
%TO.N,Row 2*%
X102700000Y-107590000D03*
D19*
%TO.P,D22,2,A*%
%TO.N,Net-(D22-A)*%
X102700000Y-115210000D03*
%TD*%
D18*
%TO.P,D21,1,K*%
%TO.N,Row 1*%
X99150000Y-107590000D03*
D19*
%TO.P,D21,2,A*%
%TO.N,Net-(D21-A)*%
X99150000Y-115210000D03*
%TD*%
D18*
%TO.P,D20,1,K*%
%TO.N,Row 1*%
X95600000Y-107590000D03*
D19*
%TO.P,D20,2,A*%
%TO.N,Net-(D20-A)*%
X95600000Y-115210000D03*
%TD*%
D18*
%TO.P,D19,1,K*%
%TO.N,Row 1*%
X92050000Y-107590000D03*
D19*
%TO.P,D19,2,A*%
%TO.N,Net-(D19-A)*%
X92050000Y-115210000D03*
%TD*%
D18*
%TO.P,D18,1,K*%
%TO.N,Row 2*%
X88500000Y-107590000D03*
D19*
%TO.P,D18,2,A*%
%TO.N,Net-(D18-A)*%
X88500000Y-115210000D03*
%TD*%
%TO.P,D17,2,A*%
%TO.N,Net-(D17-A)*%
X84950000Y-115210000D03*
D18*
%TO.P,D17,1,K*%
%TO.N,Row 3*%
X84950000Y-107590000D03*
%TD*%
D20*
%TO.N,RotEncodeB*%
X105021400Y-29662000D03*
%TO.N,Col 1*%
X116834200Y-41032100D03*
%TO.N,Col 3*%
X127815300Y-52167600D03*
%TO.N,Net-(D32-A)*%
X122772100Y-51236600D03*
X124614300Y-110613200D03*
%TO.N,Net-(D29-A)*%
X72603300Y-111647000D03*
%TO.N,Net-(D24-A)*%
X93364200Y-112145200D03*
%TO.N,Net-(D19-A)*%
X87338800Y-93999800D03*
%TO.N,Net-(D17-A)*%
X128598200Y-114588200D03*
%TO.N,Net-(D11-DOUT)*%
X131433300Y-64867300D03*
X133961000Y-84140300D03*
%TO.N,Net-(D11-DIN)*%
X118509700Y-70526900D03*
X115819400Y-100447000D03*
%TO.N,Net-(D8-DOUT)*%
X110915600Y-81358000D03*
X112885000Y-103334500D03*
%TO.N,LED Data*%
X99747000Y-82928600D03*
%TO.N,Net-(D5-DOUT)*%
X88125600Y-103071100D03*
X89176600Y-81565500D03*
%TO.N,Net-(D4-DOUT)*%
X110906200Y-61047300D03*
X115389600Y-82866900D03*
%TO.N,Net-(D3-DOUT)*%
X102859900Y-70577700D03*
X96875800Y-94757100D03*
%TO.N,Net-(D2-DOUT)*%
X72603300Y-102823400D03*
X72589900Y-82235000D03*
%TO.N,+5V*%
X124864300Y-81325000D03*
X125651100Y-99998300D03*
X125165800Y-61549600D03*
%TO.N,Net-(D1-DIN)*%
X81447600Y-97726300D03*
X81444600Y-64590800D03*
%TO.N,GND*%
X80623700Y-65408700D03*
X80290300Y-98097000D03*
X80268700Y-84474300D03*
%TD*%
D21*
%TO.N,RotEncodeB*%
X105021400Y-28129900D02*
X105021400Y-29662000D01*
X101580000Y-24688500D02*
X105021400Y-28129900D01*
%TO.N,Col 1*%
X117765300Y-67545300D02*
X117740000Y-67520000D01*
X117765300Y-86694700D02*
X117765300Y-67545300D01*
X117740000Y-86720000D02*
X117765300Y-86694700D01*
X117745600Y-67514400D02*
X117740000Y-67520000D01*
X117745600Y-48490600D02*
X117745600Y-67514400D01*
X117740000Y-48485000D02*
X117745600Y-48490600D01*
X117738500Y-48483500D02*
X117740000Y-48485000D01*
X117738400Y-48483500D02*
X117738500Y-48483500D01*
X117738400Y-41936300D02*
X117738400Y-48483500D01*
X116834200Y-41032100D02*
X117738400Y-41936300D01*
%TO.N,Col 2*%
X98766700Y-86693300D02*
X98740000Y-86720000D01*
X98766700Y-67546700D02*
X98766700Y-86693300D01*
X98740000Y-67520000D02*
X98766700Y-67546700D01*
X102664700Y-63595300D02*
X98740000Y-67520000D01*
X102664700Y-35933200D02*
X102664700Y-63595300D01*
X101580000Y-34848500D02*
X102664700Y-35933200D01*
%TO.N,Col 4*%
X79583200Y-86676800D02*
X79540000Y-86720000D01*
X79583200Y-67563200D02*
X79583200Y-86676800D01*
X79540000Y-67520000D02*
X79583200Y-67563200D01*
%TO.N,Col 3*%
X101580000Y-45525000D02*
X98620000Y-48485000D01*
X101580000Y-37388500D02*
X101580000Y-45525000D01*
X127717400Y-52265500D02*
X127815300Y-52167600D01*
X127717400Y-58697400D02*
X127717400Y-52265500D01*
X136740000Y-67720000D02*
X127717400Y-58697400D01*
%TO.N,Net-(D32-A)*%
X126010100Y-54474600D02*
X122772100Y-51236600D01*
X126010100Y-99388000D02*
X126010100Y-54474600D01*
X126270300Y-99648200D02*
X126010100Y-99388000D01*
X126270300Y-108957200D02*
X126270300Y-99648200D01*
X124614300Y-110613200D02*
X126270300Y-108957200D01*
%TO.N,Net-(D31-A)*%
X126822100Y-99431800D02*
X126586700Y-99196400D01*
X126822100Y-109256300D02*
X126822100Y-99431800D01*
X120868400Y-115210000D02*
X126822100Y-109256300D01*
X120450000Y-115210000D02*
X120868400Y-115210000D01*
X126586700Y-99196400D02*
X126421900Y-99031600D01*
X126586700Y-99196400D02*
X126421900Y-99031600D01*
X128007500Y-51060000D02*
X130390000Y-51060000D01*
X126421900Y-52645600D02*
X128007500Y-51060000D01*
X126421900Y-99031600D02*
X126421900Y-52645600D01*
%TO.N,Net-(D30-A)*%
X127223800Y-99265500D02*
X126988400Y-99030100D01*
X127223800Y-110037600D02*
X127223800Y-99265500D01*
X120939700Y-116321700D02*
X127223800Y-110037600D01*
X118011700Y-116321700D02*
X120939700Y-116321700D01*
X116900000Y-115210000D02*
X118011700Y-116321700D01*
X130565400Y-70435400D02*
X130390000Y-70260000D01*
X130565400Y-86675400D02*
X130565400Y-70435400D01*
X126846400Y-90394400D02*
X130565400Y-86675400D01*
X126846400Y-98888100D02*
X126846400Y-90394400D01*
X126988400Y-99030100D02*
X126846400Y-98888100D01*
X126988400Y-99030100D02*
X126846400Y-98888100D01*
%TO.N,Net-(D29-A)*%
X70059400Y-109103100D02*
X72603300Y-111647000D01*
X70059400Y-70915800D02*
X70059400Y-109103100D01*
X73363200Y-67612000D02*
X70059400Y-70915800D01*
X73363200Y-51198200D02*
X73363200Y-67612000D01*
X73190000Y-51025000D02*
X73363200Y-51198200D01*
%TO.N,Net-(D24-A)*%
X93152700Y-111933700D02*
X93364200Y-112145200D01*
X93152700Y-106690500D02*
X93152700Y-111933700D01*
X92320900Y-105858700D02*
X93152700Y-106690500D01*
X92320900Y-94984500D02*
X92320900Y-105858700D01*
X89690800Y-92354400D02*
X92320900Y-94984500D01*
X89690800Y-90438200D02*
X89690800Y-92354400D01*
X90938300Y-89190700D02*
X89690800Y-90438200D01*
X90938300Y-81220600D02*
X90938300Y-89190700D01*
X92563200Y-79595700D02*
X90938300Y-81220600D01*
X92563200Y-70233200D02*
X92563200Y-79595700D01*
X92390000Y-70060000D02*
X92563200Y-70233200D01*
%TO.N,Net-(D23-A)*%
X92851900Y-89721900D02*
X92390000Y-89260000D01*
X92851900Y-96690100D02*
X92851900Y-89721900D01*
X93655900Y-97494100D02*
X92851900Y-96690100D01*
X93655900Y-111290300D02*
X93655900Y-97494100D01*
X98682700Y-116317100D02*
X93655900Y-111290300D01*
X105142900Y-116317100D02*
X98682700Y-116317100D01*
X106250000Y-115210000D02*
X105142900Y-116317100D01*
%TO.N,Net-(D22-A)*%
X110630400Y-89260000D02*
X111390000Y-89260000D01*
X108223600Y-91666800D02*
X110630400Y-89260000D01*
X108223600Y-109686400D02*
X108223600Y-91666800D01*
X102700000Y-115210000D02*
X108223600Y-109686400D01*
%TO.N,Net-(D21-A)*%
X111543100Y-70213100D02*
X111390000Y-70060000D01*
X111543100Y-76903700D02*
X111543100Y-70213100D01*
X107386500Y-81060300D02*
X111543100Y-76903700D01*
X107386500Y-108376200D02*
X107386500Y-81060300D01*
X100552700Y-115210000D02*
X107386500Y-108376200D01*
X99150000Y-115210000D02*
X100552700Y-115210000D01*
%TO.N,Net-(D20-A)*%
X89239100Y-92576300D02*
X89474500Y-92811700D01*
X89239100Y-90319700D02*
X89239100Y-92576300D01*
X89778300Y-89780500D02*
X89239100Y-90319700D01*
X89778300Y-81316300D02*
X89778300Y-89780500D01*
X89640800Y-81178800D02*
X89778300Y-81316300D01*
X89640800Y-62403200D02*
X89640800Y-81178800D01*
X92443200Y-59600800D02*
X89640800Y-62403200D01*
X92443200Y-51198200D02*
X92443200Y-59600800D01*
X92270000Y-51025000D02*
X92443200Y-51198200D01*
X89474500Y-92811700D02*
X89639300Y-92976500D01*
X89474500Y-92811700D02*
X89639300Y-92976500D01*
X95578200Y-115210000D02*
X95600000Y-115210000D01*
X89639300Y-109271100D02*
X95578200Y-115210000D01*
X89639300Y-92976500D02*
X89639300Y-109271100D01*
%TO.N,Row 1*%
X108717400Y-40411100D02*
X116820000Y-32308500D01*
X108717400Y-65427100D02*
X108717400Y-40411100D01*
X106250000Y-67894500D02*
X108717400Y-65427100D01*
X106250000Y-107590000D02*
X106250000Y-67894500D01*
%TO.N,Net-(D19-A)*%
X87338800Y-110498800D02*
X92050000Y-115210000D01*
X87338800Y-93999800D02*
X87338800Y-110498800D01*
%TO.N,Row 2*%
X115754400Y-35914100D02*
X116820000Y-34848500D01*
X115754400Y-37847500D02*
X115754400Y-35914100D01*
X119213200Y-41306300D02*
X115754400Y-37847500D01*
X119213200Y-49154600D02*
X119213200Y-41306300D01*
X118410900Y-49956900D02*
X119213200Y-49154600D01*
X118410900Y-66034300D02*
X118410900Y-49956900D01*
X119199300Y-66822700D02*
X118410900Y-66034300D01*
X119199300Y-70688200D02*
X119199300Y-66822700D01*
X118837500Y-71050000D02*
X119199300Y-70688200D01*
X118837500Y-84564500D02*
X118837500Y-71050000D01*
X119603000Y-85330000D02*
X118837500Y-84564500D01*
X119603000Y-88014100D02*
X119603000Y-85330000D01*
X118874900Y-88742200D02*
X119603000Y-88014100D01*
X118874900Y-102065100D02*
X118874900Y-88742200D01*
X113350000Y-107590000D02*
X118874900Y-102065100D01*
%TO.N,Net-(D18-A)*%
X79548900Y-106258900D02*
X88500000Y-115210000D01*
X79548900Y-90666800D02*
X79548900Y-106258900D01*
X73651900Y-84769800D02*
X79548900Y-90666800D01*
X73651900Y-70521900D02*
X73651900Y-84769800D01*
X73190000Y-70060000D02*
X73651900Y-70521900D01*
%TO.N,Row 3*%
X119608600Y-66560500D02*
X119601000Y-66552900D01*
X119608600Y-66560500D02*
X119601000Y-66552900D01*
X119614900Y-40183400D02*
X116820000Y-37388500D01*
X119614900Y-49365500D02*
X119614900Y-40183400D01*
X118832800Y-50147600D02*
X119614900Y-49365500D01*
X118832800Y-65784700D02*
X118832800Y-50147600D01*
X119601000Y-66552900D02*
X118832800Y-65784700D01*
X124000000Y-70951900D02*
X119608600Y-66560500D01*
X124000000Y-107590000D02*
X124000000Y-70951900D01*
%TO.N,Net-(D17-A)*%
X130563200Y-89633200D02*
X130390000Y-89460000D01*
X130563200Y-112623200D02*
X130563200Y-89633200D01*
X128598200Y-114588200D02*
X130563200Y-112623200D01*
%TO.N,Net-(D11-DOUT)*%
X131859500Y-65293500D02*
X131433300Y-64867300D01*
X131859500Y-71272600D02*
X131859500Y-65293500D01*
X131643900Y-71488200D02*
X131859500Y-71272600D01*
X131643900Y-81823200D02*
X131643900Y-71488200D01*
X133961000Y-84140300D02*
X131643900Y-81823200D01*
%TO.N,Net-(D11-DIN)*%
X118251000Y-98015400D02*
X115819400Y-100447000D01*
X118251000Y-88515300D02*
X118251000Y-98015400D01*
X119201300Y-87565000D02*
X118251000Y-88515300D01*
X119201300Y-86096100D02*
X119201300Y-87565000D01*
X118435800Y-85330600D02*
X119201300Y-86096100D01*
X118435800Y-70600800D02*
X118435800Y-85330600D01*
X118509700Y-70526900D02*
X118435800Y-70600800D01*
X118509700Y-70526900D02*
X118435800Y-70526900D01*
X118435800Y-70526900D02*
X118509700Y-70526900D01*
%TO.N,Net-(D8-DOUT)*%
X112850300Y-83292700D02*
X110915600Y-81358000D01*
X112850300Y-90281800D02*
X112850300Y-83292700D01*
X112616700Y-90515400D02*
X112850300Y-90281800D01*
X112616700Y-103066200D02*
X112616700Y-90515400D01*
X112885000Y-103334500D02*
X112616700Y-103066200D01*
X110915600Y-81358000D02*
X110915600Y-81325000D01*
X110915600Y-81325000D02*
X110915600Y-81358000D01*
%TO.N,LED Data*%
X99747000Y-72149400D02*
X99747000Y-82928600D01*
X108168900Y-63727500D02*
X99747000Y-72149400D01*
X108168900Y-38419600D02*
X108168900Y-63727500D01*
X116820000Y-29768500D02*
X108168900Y-38419600D01*
%TO.N,Net-(D5-DOUT)*%
X88125600Y-82616500D02*
X89176600Y-81565500D01*
X88125600Y-103071100D02*
X88125600Y-82616500D01*
%TO.N,Net-(D4-DOUT)*%
X112600500Y-80077800D02*
X115389600Y-82866900D01*
X112600500Y-71331600D02*
X112600500Y-80077800D01*
X112850300Y-71081800D02*
X112600500Y-71331600D01*
X112850300Y-62991400D02*
X112850300Y-71081800D01*
X110906200Y-61047300D02*
X112850300Y-62991400D01*
%TO.N,Net-(D3-DOUT)*%
X99066800Y-92566100D02*
X96875800Y-94757100D01*
X99066800Y-88982300D02*
X99066800Y-92566100D01*
X102859900Y-85189200D02*
X99066800Y-88982300D01*
X102859900Y-70577700D02*
X102859900Y-85189200D01*
X96875800Y-94757100D02*
X99066800Y-94757100D01*
X99066800Y-94757100D02*
X96875800Y-94757100D01*
%TO.N,Net-(D2-DOUT)*%
X70495600Y-82235000D02*
X72589900Y-82235000D01*
X72589900Y-82235000D02*
X70495600Y-82235000D01*
X70495600Y-100715700D02*
X70495600Y-82235000D01*
X72603300Y-102823400D02*
X70495600Y-100715700D01*
%TO.N,+5V*%
X124864300Y-99211500D02*
X124864300Y-81325000D01*
X125651100Y-99998300D02*
X124864300Y-99211500D01*
X124864300Y-61851100D02*
X125165800Y-61549600D01*
X124864300Y-81325000D02*
X124864300Y-61851100D01*
X125165800Y-55321500D02*
X125165800Y-61549600D01*
X121681100Y-51836800D02*
X125165800Y-55321500D01*
X121681100Y-27009600D02*
X121681100Y-51836800D01*
X116820000Y-22148500D02*
X121681100Y-27009600D01*
%TO.N,Net-(D1-DIN)*%
X81424900Y-85303500D02*
X81189500Y-85068100D01*
X81424900Y-88026500D02*
X81424900Y-85303500D01*
X80665700Y-88785700D02*
X81424900Y-88026500D01*
X80665700Y-96944400D02*
X80665700Y-88785700D01*
X81447600Y-97726300D02*
X80665700Y-96944400D01*
X81189500Y-85068100D02*
X81023200Y-84901800D01*
X81189500Y-85068100D02*
X81023200Y-84901800D01*
X81444600Y-68560000D02*
X81444600Y-64590800D01*
X80666400Y-69338200D02*
X81444600Y-68560000D01*
X80666400Y-84021100D02*
X80666400Y-69338200D01*
X81023200Y-84377900D02*
X80666400Y-84021100D01*
X81023200Y-84901800D02*
X81023200Y-84377900D01*
%TO.N,GND*%
X80623700Y-63284900D02*
X80623700Y-65408700D01*
X84658900Y-59249700D02*
X80623700Y-63284900D01*
X84658900Y-34524900D02*
X84658900Y-59249700D01*
X92112100Y-27071700D02*
X84658900Y-34524900D01*
X92400000Y-27071700D02*
X92112100Y-27071700D01*
X92400000Y-25920000D02*
X92400000Y-27071700D01*
X80240300Y-84445900D02*
X80268700Y-84474300D01*
X80240300Y-68872800D02*
X80240300Y-84445900D01*
X81025800Y-68087300D02*
X80240300Y-68872800D01*
X81025800Y-65810800D02*
X81025800Y-68087300D01*
X80623700Y-65408700D02*
X81025800Y-65810800D01*
X80268700Y-84915500D02*
X80268700Y-84474300D01*
X81023200Y-85670000D02*
X80268700Y-84915500D01*
X81023200Y-87793300D02*
X81023200Y-85670000D01*
X80209200Y-88607300D02*
X81023200Y-87793300D01*
X80209200Y-98015900D02*
X80209200Y-88607300D01*
X80290300Y-98097000D02*
X80209200Y-98015900D01*
X80290300Y-98097000D02*
X80175600Y-98097000D01*
X80175600Y-98097000D02*
X80290300Y-98097000D01*
%TD*%
M02*
