%TF.GenerationSoftware,KiCad,Pcbnew,9.0.2-2.fc42*%
%TF.CreationDate,2025-06-07T11:28:53-05:00*%
%TF.ProjectId,macro_pad,6d616372-6f5f-4706-9164-2e6b69636164,rev?*%
%TF.SameCoordinates,Original*%
%TF.FileFunction,Soldermask,Bot*%
%TF.FilePolarity,Negative*%
%FSLAX46Y46*%
G04 Gerber Fmt 4.6, Leading zero omitted, Abs format (unit mm)*
G04 Created by KiCad (PCBNEW 9.0.2-2.fc42) date 2025-06-07 11:28:53*
%MOMM*%
%LPD*%
G01*
G04 APERTURE LIST*
G04 Aperture macros list*
%AMRoundRect*
0 Rectangle with rounded corners*
0 $1 Rounding radius*
0 $2 $3 $4 $5 $6 $7 $8 $9 X,Y pos of 4 corners*
0 Add a 4 corners polygon primitive as box body*
4,1,4,$2,$3,$4,$5,$6,$7,$8,$9,$2,$3,0*
0 Add four circle primitives for the rounded corners*
1,1,$1+$1,$2,$3*
1,1,$1+$1,$4,$5*
1,1,$1+$1,$6,$7*
1,1,$1+$1,$8,$9*
0 Add four rect primitives between the rounded corners*
20,1,$1+$1,$2,$3,$4,$5,0*
20,1,$1+$1,$4,$5,$6,$7,0*
20,1,$1+$1,$6,$7,$8,$9,0*
20,1,$1+$1,$8,$9,$2,$3,0*%
G04 Aperture macros list end*
%ADD10C,1.500000*%
%ADD11R,2.000000X2.000000*%
%ADD12C,2.000000*%
%ADD13R,3.200000X2.000000*%
%ADD14C,1.524000*%
%ADD15C,1.701800*%
%ADD16C,3.987800*%
%ADD17C,2.300000*%
%ADD18R,1.700000X1.700000*%
%ADD19O,1.700000X1.700000*%
%ADD20RoundRect,0.250000X-0.550000X0.550000X-0.550000X-0.550000X0.550000X-0.550000X0.550000X0.550000X0*%
%ADD21C,1.600000*%
G04 APERTURE END LIST*
D10*
%TO.C,SW13*%
X142175000Y-26100000D03*
X142175000Y-31100000D03*
D11*
X127675000Y-26100000D03*
D12*
X127675000Y-31100000D03*
X127675000Y-28600000D03*
D13*
X135175000Y-23000000D03*
X135175000Y-34200000D03*
%TD*%
D14*
%TO.C,U1*%
X101580000Y-22148500D03*
X101580000Y-24688500D03*
X101580000Y-27228500D03*
X101580000Y-29768500D03*
X101580000Y-32308500D03*
X101580000Y-34848500D03*
X101580000Y-37388500D03*
X116820000Y-37388500D03*
X116820000Y-34848500D03*
X116820000Y-32308500D03*
X116820000Y-29768500D03*
X116820000Y-27228500D03*
X116820000Y-24688500D03*
X116820000Y-22148500D03*
%TD*%
D15*
%TO.C,SW12*%
X129120000Y-92000000D03*
D16*
X134200000Y-92000000D03*
D15*
X139280000Y-92000000D03*
D17*
X130390000Y-89460000D03*
X136740000Y-86920000D03*
%TD*%
D15*
%TO.C,SW11*%
X129120000Y-72800000D03*
D16*
X134200000Y-72800000D03*
D15*
X139280000Y-72800000D03*
D17*
X130390000Y-70260000D03*
X136740000Y-67720000D03*
%TD*%
D15*
%TO.C,SW10*%
X129120000Y-53600000D03*
D16*
X134200000Y-53600000D03*
D15*
X139280000Y-53600000D03*
D17*
X130390000Y-51060000D03*
X136740000Y-48520000D03*
%TD*%
D15*
%TO.C,SW9*%
X110120000Y-53565000D03*
D16*
X115200000Y-53565000D03*
D15*
X120280000Y-53565000D03*
D17*
X111390000Y-51025000D03*
X117740000Y-48485000D03*
%TD*%
D15*
%TO.C,SW8*%
X110120000Y-72600000D03*
D16*
X115200000Y-72600000D03*
D15*
X120280000Y-72600000D03*
D17*
X111390000Y-70060000D03*
X117740000Y-67520000D03*
%TD*%
D15*
%TO.C,SW7*%
X110120000Y-91800000D03*
D16*
X115200000Y-91800000D03*
D15*
X120280000Y-91800000D03*
D17*
X111390000Y-89260000D03*
X117740000Y-86720000D03*
%TD*%
D15*
%TO.C,SW6*%
X91120000Y-72600000D03*
D16*
X96200000Y-72600000D03*
D15*
X101280000Y-72600000D03*
D17*
X92390000Y-70060000D03*
X98740000Y-67520000D03*
%TD*%
D15*
%TO.C,SW5*%
X91000000Y-53565000D03*
D16*
X96080000Y-53565000D03*
D15*
X101160000Y-53565000D03*
D17*
X92270000Y-51025000D03*
X98620000Y-48485000D03*
%TD*%
D15*
%TO.C,SW4*%
X91120000Y-91800000D03*
D16*
X96200000Y-91800000D03*
D15*
X101280000Y-91800000D03*
D17*
X92390000Y-89260000D03*
X98740000Y-86720000D03*
%TD*%
D15*
%TO.C,SW3*%
X71920000Y-91800000D03*
D16*
X77000000Y-91800000D03*
D15*
X82080000Y-91800000D03*
D17*
X73190000Y-89260000D03*
X79540000Y-86720000D03*
%TD*%
D15*
%TO.C,SW2*%
X71920000Y-72600000D03*
D16*
X77000000Y-72600000D03*
D15*
X82080000Y-72600000D03*
D17*
X73190000Y-70060000D03*
X79540000Y-67520000D03*
%TD*%
D15*
%TO.C,SW1*%
X71920000Y-53565000D03*
D16*
X77000000Y-53565000D03*
D15*
X82080000Y-53565000D03*
D17*
X73190000Y-51025000D03*
X79540000Y-48485000D03*
%TD*%
D18*
%TO.C,J1*%
X92400000Y-25920000D03*
D19*
X92400000Y-28460000D03*
X92400000Y-31000000D03*
X92400000Y-33540000D03*
%TD*%
D20*
%TO.C,D32*%
X124000000Y-107590000D03*
D21*
X124000000Y-115210000D03*
%TD*%
D20*
%TO.C,D31*%
X120450000Y-107590000D03*
D21*
X120450000Y-115210000D03*
%TD*%
D20*
%TO.C,D30*%
X116900000Y-107590000D03*
D21*
X116900000Y-115210000D03*
%TD*%
D20*
%TO.C,D29*%
X113350000Y-107590000D03*
D21*
X113350000Y-115210000D03*
%TD*%
D20*
%TO.C,D24*%
X109800000Y-107590000D03*
D21*
X109800000Y-115210000D03*
%TD*%
D20*
%TO.C,D23*%
X106250000Y-107590000D03*
D21*
X106250000Y-115210000D03*
%TD*%
D20*
%TO.C,D22*%
X102700000Y-107590000D03*
D21*
X102700000Y-115210000D03*
%TD*%
D20*
%TO.C,D21*%
X99150000Y-107590000D03*
D21*
X99150000Y-115210000D03*
%TD*%
D20*
%TO.C,D20*%
X95600000Y-107590000D03*
D21*
X95600000Y-115210000D03*
%TD*%
D20*
%TO.C,D19*%
X92050000Y-107590000D03*
D21*
X92050000Y-115210000D03*
%TD*%
D20*
%TO.C,D18*%
X88500000Y-107590000D03*
D21*
X88500000Y-115210000D03*
%TD*%
%TO.C,D17*%
X84950000Y-115210000D03*
D20*
X84950000Y-107590000D03*
%TD*%
M02*
