%TF.GenerationSoftware,KiCad,Pcbnew,9.0.2-2.fc42*%
%TF.CreationDate,2025-06-07T11:28:52-05:00*%
%TF.ProjectId,macro_pad,6d616372-6f5f-4706-9164-2e6b69636164,rev?*%
%TF.SameCoordinates,Original*%
%TF.FileFunction,Paste,Top*%
%TF.FilePolarity,Positive*%
%FSLAX46Y46*%
G04 Gerber Fmt 4.6, Leading zero omitted, Abs format (unit mm)*
G04 Created by KiCad (PCBNEW 9.0.2-2.fc42) date 2025-06-07 11:28:52*
%MOMM*%
%LPD*%
G01*
G04 APERTURE LIST*
%ADD10R,1.600000X0.850000*%
G04 APERTURE END LIST*
D10*
%TO.C,D15*%
X132450000Y-100725000D03*
X132450000Y-102475000D03*
X135950000Y-102475000D03*
X135950000Y-100725000D03*
%TD*%
%TO.C,D13*%
X132200000Y-82400000D03*
X132200000Y-84150000D03*
X135700000Y-84150000D03*
X135700000Y-82400000D03*
%TD*%
%TO.C,D11*%
X132450000Y-61725000D03*
X132450000Y-63475000D03*
X135950000Y-63475000D03*
X135950000Y-61725000D03*
%TD*%
%TO.C,D9*%
X114250000Y-100525000D03*
X114250000Y-102275000D03*
X117750000Y-102275000D03*
X117750000Y-100525000D03*
%TD*%
%TO.C,D8*%
X113650000Y-81325000D03*
X113650000Y-83075000D03*
X117150000Y-83075000D03*
X117150000Y-81325000D03*
%TD*%
%TO.C,D7*%
X113800000Y-62000000D03*
X113800000Y-63750000D03*
X117300000Y-63750000D03*
X117300000Y-62000000D03*
%TD*%
%TO.C,D6*%
X94250000Y-100525000D03*
X94250000Y-102275000D03*
X97750000Y-102275000D03*
X97750000Y-100525000D03*
%TD*%
%TO.C,D5*%
X94450000Y-81325000D03*
X94450000Y-83075000D03*
X97950000Y-83075000D03*
X97950000Y-81325000D03*
%TD*%
%TO.C,D4*%
X94300000Y-61800000D03*
X94300000Y-63550000D03*
X97800000Y-63550000D03*
X97800000Y-61800000D03*
%TD*%
%TO.C,D3*%
X75050000Y-100725000D03*
X75050000Y-102475000D03*
X78550000Y-102475000D03*
X78550000Y-100725000D03*
%TD*%
%TO.C,D2*%
X74850000Y-81325000D03*
X74850000Y-83075000D03*
X78350000Y-83075000D03*
X78350000Y-81325000D03*
%TD*%
%TO.C,D1*%
X74900000Y-62000000D03*
X74900000Y-63750000D03*
X78400000Y-63750000D03*
X78400000Y-62000000D03*
%TD*%
M02*
