%TF.GenerationSoftware,KiCad,Pcbnew,9.0.2-2.fc42*%
%TF.CreationDate,2025-06-07T11:28:52-05:00*%
%TF.ProjectId,macro_pad,6d616372-6f5f-4706-9164-2e6b69636164,rev?*%
%TF.SameCoordinates,Original*%
%TF.FileFunction,Copper,L1,Top*%
%TF.FilePolarity,Positive*%
%FSLAX46Y46*%
G04 Gerber Fmt 4.6, Leading zero omitted, Abs format (unit mm)*
G04 Created by KiCad (PCBNEW 9.0.2-2.fc42) date 2025-06-07 11:28:52*
%MOMM*%
%LPD*%
G01*
G04 APERTURE LIST*
G04 Aperture macros list*
%AMRoundRect*
0 Rectangle with rounded corners*
0 $1 Rounding radius*
0 $2 $3 $4 $5 $6 $7 $8 $9 X,Y pos of 4 corners*
0 Add a 4 corners polygon primitive as box body*
4,1,4,$2,$3,$4,$5,$6,$7,$8,$9,$2,$3,0*
0 Add four circle primitives for the rounded corners*
1,1,$1+$1,$2,$3*
1,1,$1+$1,$4,$5*
1,1,$1+$1,$6,$7*
1,1,$1+$1,$8,$9*
0 Add four rect primitives between the rounded corners*
20,1,$1+$1,$2,$3,$4,$5,0*
20,1,$1+$1,$4,$5,$6,$7,0*
20,1,$1+$1,$6,$7,$8,$9,0*
20,1,$1+$1,$8,$9,$2,$3,0*%
G04 Aperture macros list end*
%TA.AperFunction,ComponentPad*%
%ADD10C,1.500000*%
%TD*%
%TA.AperFunction,ComponentPad*%
%ADD11R,2.000000X2.000000*%
%TD*%
%TA.AperFunction,ComponentPad*%
%ADD12C,2.000000*%
%TD*%
%TA.AperFunction,ComponentPad*%
%ADD13R,3.200000X2.000000*%
%TD*%
%TA.AperFunction,SMDPad,CuDef*%
%ADD14RoundRect,0.152400X1.063600X0.609600X-1.063600X0.609600X-1.063600X-0.609600X1.063600X-0.609600X0*%
%TD*%
%TA.AperFunction,ComponentPad*%
%ADD15C,1.524000*%
%TD*%
%TA.AperFunction,SMDPad,CuDef*%
%ADD16RoundRect,0.152400X-1.063600X-0.609600X1.063600X-0.609600X1.063600X0.609600X-1.063600X0.609600X0*%
%TD*%
%TA.AperFunction,ComponentPad*%
%ADD17C,2.300000*%
%TD*%
%TA.AperFunction,ComponentPad*%
%ADD18R,1.700000X1.700000*%
%TD*%
%TA.AperFunction,ComponentPad*%
%ADD19O,1.700000X1.700000*%
%TD*%
%TA.AperFunction,ComponentPad*%
%ADD20RoundRect,0.250000X-0.550000X0.550000X-0.550000X-0.550000X0.550000X-0.550000X0.550000X0.550000X0*%
%TD*%
%TA.AperFunction,ComponentPad*%
%ADD21C,1.600000*%
%TD*%
%TA.AperFunction,SMDPad,CuDef*%
%ADD22R,1.600000X0.850000*%
%TD*%
%TA.AperFunction,ViaPad*%
%ADD23C,0.600000*%
%TD*%
%TA.AperFunction,Conductor*%
%ADD24C,0.200000*%
%TD*%
G04 APERTURE END LIST*
D10*
%TO.P,SW13,*%
%TO.N,*%
X142175000Y-26100000D03*
X142175000Y-31100000D03*
D11*
%TO.P,SW13,A,A*%
%TO.N,RotEncodeA*%
X127675000Y-26100000D03*
D12*
%TO.P,SW13,B,B*%
%TO.N,RotEncodeB*%
X127675000Y-31100000D03*
%TO.P,SW13,C,C*%
%TO.N,GND*%
X127675000Y-28600000D03*
D13*
%TO.P,SW13,MP*%
%TO.N,N/C*%
X135175000Y-23000000D03*
X135175000Y-34200000D03*
%TD*%
D14*
%TO.P,U1,1,GPIO26/ADC0/A0*%
%TO.N,RotEncodeA*%
X100745000Y-22148500D03*
D15*
X101580000Y-22148500D03*
D14*
%TO.P,U1,2,GPIO27/ADC1/A1*%
%TO.N,RotEncodeB*%
X100745000Y-24688500D03*
D15*
X101580000Y-24688500D03*
D14*
%TO.P,U1,3,GPIO28/ADC2/A2*%
%TO.N,OLED SCL*%
X100745000Y-27228500D03*
D15*
X101580000Y-27228500D03*
D14*
%TO.P,U1,4,GPIO29/ADC3/A3*%
%TO.N,OLED SDA*%
X100745000Y-29768500D03*
D15*
X101580000Y-29768500D03*
D14*
%TO.P,U1,5,GPIO6/SDA*%
%TO.N,Col 1*%
X100745000Y-32308500D03*
D15*
X101580000Y-32308500D03*
D14*
%TO.P,U1,6,GPIO7/SCL*%
%TO.N,Col 2*%
X100745000Y-34848500D03*
D15*
X101580000Y-34848500D03*
D14*
%TO.P,U1,7,GPIO0/TX*%
%TO.N,Col 3*%
X100745000Y-37388500D03*
D15*
X101580000Y-37388500D03*
%TO.P,U1,8,GPIO1/RX*%
%TO.N,Row 3*%
X116820000Y-37388500D03*
D16*
X117655000Y-37388500D03*
D15*
%TO.P,U1,9,GPIO2/SCK*%
%TO.N,Row 2*%
X116820000Y-34848500D03*
D16*
X117655000Y-34848500D03*
D15*
%TO.P,U1,10,GPIO4/MISO*%
%TO.N,Row 1*%
X116820000Y-32308500D03*
D16*
X117655000Y-32308500D03*
D15*
%TO.P,U1,11,GPIO3/MOSI*%
%TO.N,LED Data*%
X116820000Y-29768500D03*
D16*
X117655000Y-29768500D03*
D15*
%TO.P,U1,12,3V3*%
%TO.N,+3.3V*%
X116820000Y-27228500D03*
D16*
X117655000Y-27228500D03*
D15*
%TO.P,U1,13,GND*%
%TO.N,GND*%
X116820000Y-24688500D03*
D16*
X117655000Y-24688500D03*
D15*
%TO.P,U1,14,VBUS*%
%TO.N,+5V*%
X116820000Y-22148500D03*
D16*
X117655000Y-22148500D03*
%TD*%
D17*
%TO.P,SW12,1,1*%
%TO.N,Net-(D17-A)*%
X130390000Y-89460000D03*
%TO.P,SW12,2,2*%
%TO.N,Col 4*%
X136740000Y-86920000D03*
%TD*%
%TO.P,SW11,1,1*%
%TO.N,Net-(D30-A)*%
X130390000Y-70260000D03*
%TO.P,SW11,2,2*%
%TO.N,Col 3*%
X136740000Y-67720000D03*
%TD*%
%TO.P,SW10,1,1*%
%TO.N,Net-(D31-A)*%
X130390000Y-51060000D03*
%TO.P,SW10,2,2*%
%TO.N,Col 2*%
X136740000Y-48520000D03*
%TD*%
%TO.P,SW9,1,1*%
%TO.N,Net-(D32-A)*%
X111390000Y-51025000D03*
%TO.P,SW9,2,2*%
%TO.N,Col 1*%
X117740000Y-48485000D03*
%TD*%
%TO.P,SW8,1,1*%
%TO.N,Net-(D21-A)*%
X111390000Y-70060000D03*
%TO.P,SW8,2,2*%
%TO.N,Col 1*%
X117740000Y-67520000D03*
%TD*%
%TO.P,SW7,1,1*%
%TO.N,Net-(D22-A)*%
X111390000Y-89260000D03*
%TO.P,SW7,2,2*%
%TO.N,Col 1*%
X117740000Y-86720000D03*
%TD*%
%TO.P,SW6,1,1*%
%TO.N,Net-(D24-A)*%
X92390000Y-70060000D03*
%TO.P,SW6,2,2*%
%TO.N,Col 2*%
X98740000Y-67520000D03*
%TD*%
%TO.P,SW5,1,1*%
%TO.N,Net-(D20-A)*%
X92270000Y-51025000D03*
%TO.P,SW5,2,2*%
%TO.N,Col 3*%
X98620000Y-48485000D03*
%TD*%
%TO.P,SW4,1,1*%
%TO.N,Net-(D23-A)*%
X92390000Y-89260000D03*
%TO.P,SW4,2,2*%
%TO.N,Col 2*%
X98740000Y-86720000D03*
%TD*%
%TO.P,SW3,1,1*%
%TO.N,Net-(D19-A)*%
X73190000Y-89260000D03*
%TO.P,SW3,2,2*%
%TO.N,Col 4*%
X79540000Y-86720000D03*
%TD*%
%TO.P,SW2,1,1*%
%TO.N,Net-(D18-A)*%
X73190000Y-70060000D03*
%TO.P,SW2,2,2*%
%TO.N,Col 4*%
X79540000Y-67520000D03*
%TD*%
%TO.P,SW1,1,1*%
%TO.N,Net-(D29-A)*%
X73190000Y-51025000D03*
%TO.P,SW1,2,2*%
%TO.N,Col 3*%
X79540000Y-48485000D03*
%TD*%
D18*
%TO.P,J1,1,Pin_1*%
%TO.N,GND*%
X92400000Y-25920000D03*
D19*
%TO.P,J1,2,Pin_2*%
%TO.N,+3.3V*%
X92400000Y-28460000D03*
%TO.P,J1,3,Pin_3*%
%TO.N,OLED SCL*%
X92400000Y-31000000D03*
%TO.P,J1,4,Pin_4*%
%TO.N,OLED SDA*%
X92400000Y-33540000D03*
%TD*%
D20*
%TO.P,D32,1,K*%
%TO.N,Row 3*%
X124000000Y-107590000D03*
D21*
%TO.P,D32,2,A*%
%TO.N,Net-(D32-A)*%
X124000000Y-115210000D03*
%TD*%
D20*
%TO.P,D31,1,K*%
%TO.N,Row 3*%
X120450000Y-107590000D03*
D21*
%TO.P,D31,2,A*%
%TO.N,Net-(D31-A)*%
X120450000Y-115210000D03*
%TD*%
D20*
%TO.P,D30,1,K*%
%TO.N,Row 3*%
X116900000Y-107590000D03*
D21*
%TO.P,D30,2,A*%
%TO.N,Net-(D30-A)*%
X116900000Y-115210000D03*
%TD*%
D20*
%TO.P,D29,1,K*%
%TO.N,Row 2*%
X113350000Y-107590000D03*
D21*
%TO.P,D29,2,A*%
%TO.N,Net-(D29-A)*%
X113350000Y-115210000D03*
%TD*%
D20*
%TO.P,D24,1,K*%
%TO.N,Row 2*%
X109800000Y-107590000D03*
D21*
%TO.P,D24,2,A*%
%TO.N,Net-(D24-A)*%
X109800000Y-115210000D03*
%TD*%
D20*
%TO.P,D23,1,K*%
%TO.N,Row 1*%
X106250000Y-107590000D03*
D21*
%TO.P,D23,2,A*%
%TO.N,Net-(D23-A)*%
X106250000Y-115210000D03*
%TD*%
D20*
%TO.P,D22,1,K*%
%TO.N,Row 2*%
X102700000Y-107590000D03*
D21*
%TO.P,D22,2,A*%
%TO.N,Net-(D22-A)*%
X102700000Y-115210000D03*
%TD*%
D20*
%TO.P,D21,1,K*%
%TO.N,Row 1*%
X99150000Y-107590000D03*
D21*
%TO.P,D21,2,A*%
%TO.N,Net-(D21-A)*%
X99150000Y-115210000D03*
%TD*%
D20*
%TO.P,D20,1,K*%
%TO.N,Row 1*%
X95600000Y-107590000D03*
D21*
%TO.P,D20,2,A*%
%TO.N,Net-(D20-A)*%
X95600000Y-115210000D03*
%TD*%
D20*
%TO.P,D19,1,K*%
%TO.N,Row 1*%
X92050000Y-107590000D03*
D21*
%TO.P,D19,2,A*%
%TO.N,Net-(D19-A)*%
X92050000Y-115210000D03*
%TD*%
D20*
%TO.P,D18,1,K*%
%TO.N,Row 2*%
X88500000Y-107590000D03*
D21*
%TO.P,D18,2,A*%
%TO.N,Net-(D18-A)*%
X88500000Y-115210000D03*
%TD*%
%TO.P,D17,2,A*%
%TO.N,Net-(D17-A)*%
X84950000Y-115210000D03*
D20*
%TO.P,D17,1,K*%
%TO.N,Row 3*%
X84950000Y-107590000D03*
%TD*%
D22*
%TO.P,D15,1,DOUT*%
%TO.N,unconnected-(D15-DOUT-Pad1)*%
X132450000Y-100725000D03*
%TO.P,D15,2,VSS*%
%TO.N,GND*%
X132450000Y-102475000D03*
%TO.P,D15,3,DIN*%
%TO.N,Net-(D13-DOUT)*%
X135950000Y-102475000D03*
%TO.P,D15,4,VDD*%
%TO.N,+5V*%
X135950000Y-100725000D03*
%TD*%
%TO.P,D13,1,DOUT*%
%TO.N,Net-(D13-DOUT)*%
X132200000Y-82400000D03*
%TO.P,D13,2,VSS*%
%TO.N,GND*%
X132200000Y-84150000D03*
%TO.P,D13,3,DIN*%
%TO.N,Net-(D11-DOUT)*%
X135700000Y-84150000D03*
%TO.P,D13,4,VDD*%
%TO.N,+5V*%
X135700000Y-82400000D03*
%TD*%
%TO.P,D11,1,DOUT*%
%TO.N,Net-(D11-DOUT)*%
X132450000Y-61725000D03*
%TO.P,D11,2,VSS*%
%TO.N,GND*%
X132450000Y-63475000D03*
%TO.P,D11,3,DIN*%
%TO.N,Net-(D11-DIN)*%
X135950000Y-63475000D03*
%TO.P,D11,4,VDD*%
%TO.N,+5V*%
X135950000Y-61725000D03*
%TD*%
%TO.P,D9,1,DOUT*%
%TO.N,Net-(D11-DIN)*%
X114250000Y-100525000D03*
%TO.P,D9,2,VSS*%
%TO.N,GND*%
X114250000Y-102275000D03*
%TO.P,D9,3,DIN*%
%TO.N,Net-(D8-DOUT)*%
X117750000Y-102275000D03*
%TO.P,D9,4,VDD*%
%TO.N,+5V*%
X117750000Y-100525000D03*
%TD*%
%TO.P,D8,1,DOUT*%
%TO.N,Net-(D8-DOUT)*%
X113650000Y-81325000D03*
%TO.P,D8,2,VSS*%
%TO.N,GND*%
X113650000Y-83075000D03*
%TO.P,D8,3,DIN*%
%TO.N,Net-(D4-DOUT)*%
X117150000Y-83075000D03*
%TO.P,D8,4,VDD*%
%TO.N,+5V*%
X117150000Y-81325000D03*
%TD*%
%TO.P,D7,1,DOUT*%
%TO.N,Net-(D4-DIN)*%
X113800000Y-62000000D03*
%TO.P,D7,2,VSS*%
%TO.N,GND*%
X113800000Y-63750000D03*
%TO.P,D7,3,DIN*%
%TO.N,Net-(D3-DOUT)*%
X117300000Y-63750000D03*
%TO.P,D7,4,VDD*%
%TO.N,+5V*%
X117300000Y-62000000D03*
%TD*%
%TO.P,D6,1,DOUT*%
%TO.N,Net-(D1-DIN)*%
X94250000Y-100525000D03*
%TO.P,D6,2,VSS*%
%TO.N,GND*%
X94250000Y-102275000D03*
%TO.P,D6,3,DIN*%
%TO.N,Net-(D5-DOUT)*%
X97750000Y-102275000D03*
%TO.P,D6,4,VDD*%
%TO.N,+5V*%
X97750000Y-100525000D03*
%TD*%
%TO.P,D5,1,DOUT*%
%TO.N,Net-(D5-DOUT)*%
X94450000Y-81325000D03*
%TO.P,D5,2,VSS*%
%TO.N,GND*%
X94450000Y-83075000D03*
%TO.P,D5,3,DIN*%
%TO.N,LED Data*%
X97950000Y-83075000D03*
%TO.P,D5,4,VDD*%
%TO.N,+5V*%
X97950000Y-81325000D03*
%TD*%
%TO.P,D4,1,DOUT*%
%TO.N,Net-(D4-DOUT)*%
X94300000Y-61800000D03*
%TO.P,D4,2,VSS*%
%TO.N,GND*%
X94300000Y-63550000D03*
%TO.P,D4,3,DIN*%
%TO.N,Net-(D4-DIN)*%
X97800000Y-63550000D03*
%TO.P,D4,4,VDD*%
%TO.N,+5V*%
X97800000Y-61800000D03*
%TD*%
%TO.P,D3,1,DOUT*%
%TO.N,Net-(D3-DOUT)*%
X75050000Y-100725000D03*
%TO.P,D3,2,VSS*%
%TO.N,GND*%
X75050000Y-102475000D03*
%TO.P,D3,3,DIN*%
%TO.N,Net-(D2-DOUT)*%
X78550000Y-102475000D03*
%TO.P,D3,4,VDD*%
%TO.N,+5V*%
X78550000Y-100725000D03*
%TD*%
%TO.P,D2,1,DOUT*%
%TO.N,Net-(D2-DOUT)*%
X74850000Y-81325000D03*
%TO.P,D2,2,VSS*%
%TO.N,GND*%
X74850000Y-83075000D03*
%TO.P,D2,3,DIN*%
%TO.N,Net-(D1-DOUT)*%
X78350000Y-83075000D03*
%TO.P,D2,4,VDD*%
%TO.N,+5V*%
X78350000Y-81325000D03*
%TD*%
%TO.P,D1,1,DOUT*%
%TO.N,Net-(D1-DOUT)*%
X74900000Y-62000000D03*
%TO.P,D1,2,VSS*%
%TO.N,GND*%
X74900000Y-63750000D03*
%TO.P,D1,3,DIN*%
%TO.N,Net-(D1-DIN)*%
X78400000Y-63750000D03*
%TO.P,D1,4,VDD*%
%TO.N,+5V*%
X78400000Y-62000000D03*
%TD*%
D23*
%TO.N,RotEncodeB*%
X105021400Y-29662000D03*
%TO.N,Col 1*%
X116834200Y-41032100D03*
%TO.N,Col 3*%
X127815300Y-52167600D03*
%TO.N,Net-(D32-A)*%
X122772100Y-51236600D03*
X124614300Y-110613200D03*
%TO.N,Net-(D29-A)*%
X72603300Y-111647000D03*
%TO.N,Net-(D24-A)*%
X93364200Y-112145200D03*
%TO.N,Net-(D19-A)*%
X87338800Y-93999800D03*
%TO.N,Net-(D17-A)*%
X128598200Y-114588200D03*
%TO.N,Net-(D11-DOUT)*%
X131433300Y-64867300D03*
X133961000Y-84140300D03*
%TO.N,Net-(D11-DIN)*%
X118509700Y-70526900D03*
X115819400Y-100447000D03*
%TO.N,Net-(D8-DOUT)*%
X110915600Y-81358000D03*
X112885000Y-103334500D03*
%TO.N,LED Data*%
X99747000Y-82928600D03*
%TO.N,Net-(D5-DOUT)*%
X88125600Y-103071100D03*
X89176600Y-81565500D03*
%TO.N,Net-(D4-DOUT)*%
X110906200Y-61047300D03*
X115389600Y-82866900D03*
%TO.N,Net-(D3-DOUT)*%
X102859900Y-70577700D03*
X96875800Y-94757100D03*
%TO.N,Net-(D2-DOUT)*%
X72603300Y-102823400D03*
X72589900Y-82235000D03*
%TO.N,+5V*%
X124864300Y-81325000D03*
X125651100Y-99998300D03*
X125165800Y-61549600D03*
%TO.N,Net-(D1-DIN)*%
X81447600Y-97726300D03*
X81444600Y-64590800D03*
%TO.N,GND*%
X80623700Y-65408700D03*
X80290300Y-98097000D03*
X80268700Y-84474300D03*
%TD*%
D24*
%TO.N,Net-(D13-DOUT)*%
X140692900Y-98833800D02*
X137051700Y-102475000D01*
X140692900Y-87439700D02*
X140692900Y-98833800D01*
X136379900Y-83126700D02*
X140692900Y-87439700D01*
X134028400Y-83126700D02*
X136379900Y-83126700D01*
X133301700Y-82400000D02*
X134028400Y-83126700D01*
X132200000Y-82400000D02*
X133301700Y-82400000D01*
X135950000Y-102475000D02*
X137051700Y-102475000D01*
%TO.N,RotEncodeA*%
X100745000Y-22148500D02*
X101580000Y-22148500D01*
X123691800Y-23418500D02*
X126373300Y-26100000D01*
X102850000Y-23418500D02*
X123691800Y-23418500D01*
X101580000Y-22148500D02*
X102850000Y-23418500D01*
X127675000Y-26100000D02*
X126373300Y-26100000D01*
%TO.N,RotEncodeB*%
X100745000Y-24688500D02*
X101580000Y-24688500D01*
X125218900Y-28643900D02*
X127675000Y-31100000D01*
X116017800Y-28643900D02*
X125218900Y-28643900D01*
X114999700Y-29662000D02*
X116017800Y-28643900D01*
X105021400Y-29662000D02*
X114999700Y-29662000D01*
%TO.N,OLED SCL*%
X101580000Y-27228500D02*
X100745000Y-27228500D01*
X92131500Y-29848300D02*
X92400000Y-29848300D01*
X91190300Y-28907100D02*
X92131500Y-29848300D01*
X91190300Y-28008900D02*
X91190300Y-28907100D01*
X91970700Y-27228500D02*
X91190300Y-28008900D01*
X100745000Y-27228500D02*
X91970700Y-27228500D01*
X92400000Y-31000000D02*
X92400000Y-29848300D01*
%TO.N,OLED SDA*%
X100745000Y-29768500D02*
X101580000Y-29768500D01*
X96973500Y-33540000D02*
X100745000Y-29768500D01*
X92400000Y-33540000D02*
X96973500Y-33540000D01*
%TO.N,Col 1*%
X101580000Y-32308500D02*
X100745000Y-32308500D01*
X108110600Y-32308500D02*
X116834200Y-41032100D01*
X101580000Y-32308500D02*
X108110600Y-32308500D01*
%TO.N,Col 2*%
X100745000Y-34848500D02*
X101580000Y-34848500D01*
X121325200Y-48520000D02*
X136740000Y-48520000D01*
X107653700Y-34848500D02*
X121325200Y-48520000D01*
X101580000Y-34848500D02*
X107653700Y-34848500D01*
%TO.N,Col 4*%
X81074700Y-85185300D02*
X79540000Y-86720000D01*
X135005300Y-85185300D02*
X81074700Y-85185300D01*
X136740000Y-86920000D02*
X135005300Y-85185300D01*
%TO.N,Col 3*%
X100745000Y-37388500D02*
X101580000Y-37388500D01*
X79540000Y-48485000D02*
X98620000Y-48485000D01*
X125968200Y-50320500D02*
X127815300Y-52167600D01*
X117035500Y-50320500D02*
X125968200Y-50320500D01*
X115200000Y-48485000D02*
X117035500Y-50320500D01*
X98620000Y-48485000D02*
X115200000Y-48485000D01*
%TO.N,Net-(D32-A)*%
X111470700Y-50944300D02*
X111390000Y-51025000D01*
X122479800Y-50944300D02*
X111470700Y-50944300D01*
X122772100Y-51236600D02*
X122479800Y-50944300D01*
X124000000Y-111227500D02*
X124614300Y-110613200D01*
X124000000Y-115210000D02*
X124000000Y-111227500D01*
%TO.N,Net-(D29-A)*%
X111614000Y-115210000D02*
X113350000Y-115210000D01*
X110500000Y-116324000D02*
X111614000Y-115210000D01*
X87629600Y-116324000D02*
X110500000Y-116324000D01*
X82952600Y-111647000D02*
X87629600Y-116324000D01*
X72603300Y-111647000D02*
X82952600Y-111647000D01*
%TO.N,Net-(D24-A)*%
X106735200Y-112145200D02*
X109800000Y-115210000D01*
X93364200Y-112145200D02*
X106735200Y-112145200D01*
%TO.N,Row 1*%
X117655000Y-32308500D02*
X116820000Y-32308500D01*
X100289200Y-108729200D02*
X99150000Y-107590000D01*
X105110800Y-108729200D02*
X100289200Y-108729200D01*
X106250000Y-107590000D02*
X105110800Y-108729200D01*
X95600000Y-107590000D02*
X92050000Y-107590000D01*
X95600000Y-107590000D02*
X99150000Y-107590000D01*
%TO.N,Net-(D19-A)*%
X82548500Y-89209500D02*
X87338800Y-93999800D01*
X73240500Y-89209500D02*
X82548500Y-89209500D01*
X73190000Y-89260000D02*
X73240500Y-89209500D01*
%TO.N,Row 2*%
X116820000Y-34848500D02*
X117655000Y-34848500D01*
X102700000Y-106433900D02*
X102700000Y-107590000D01*
X89656100Y-106433900D02*
X102700000Y-106433900D01*
X88500000Y-107590000D02*
X89656100Y-106433900D01*
X108643900Y-106433900D02*
X109800000Y-107590000D01*
X102700000Y-106433900D02*
X108643900Y-106433900D01*
X113350000Y-107590000D02*
X109800000Y-107590000D01*
%TO.N,Row 3*%
X117655000Y-37388500D02*
X116820000Y-37388500D01*
X124000000Y-107590000D02*
X120450000Y-107590000D01*
X120450000Y-107590000D02*
X118675000Y-107590000D01*
X118675000Y-107590000D02*
X116900000Y-107590000D01*
X86520600Y-106019400D02*
X84950000Y-107590000D01*
X115787400Y-106019400D02*
X86520600Y-106019400D01*
X116142500Y-106374500D02*
X115787400Y-106019400D01*
X116142500Y-106488800D02*
X116142500Y-106374500D01*
X117243700Y-107590000D02*
X116142500Y-106488800D01*
X118675000Y-107590000D02*
X117243700Y-107590000D01*
%TO.N,Net-(D17-A)*%
X110866500Y-116725700D02*
X111101900Y-116490300D01*
X86465700Y-116725700D02*
X110866500Y-116725700D01*
X84950000Y-115210000D02*
X86465700Y-116725700D01*
X111101900Y-116490300D02*
X111266700Y-116325500D01*
X111101900Y-116490300D02*
X111266700Y-116325500D01*
X126860900Y-116325500D02*
X128598200Y-114588200D01*
X111266700Y-116325500D02*
X126860900Y-116325500D01*
%TO.N,+3.3V*%
X115588500Y-28460000D02*
X116820000Y-27228500D01*
X92400000Y-28460000D02*
X115588500Y-28460000D01*
X116820000Y-27228500D02*
X117655000Y-27228500D01*
%TO.N,Net-(D11-DOUT)*%
X135700000Y-84150000D02*
X134598300Y-84150000D01*
X133551700Y-64025000D02*
X133551700Y-61725000D01*
X132709400Y-64867300D02*
X133551700Y-64025000D01*
X131433300Y-64867300D02*
X132709400Y-64867300D01*
X134588600Y-84140300D02*
X134598300Y-84150000D01*
X133961000Y-84140300D02*
X134588600Y-84140300D01*
X132450000Y-61725000D02*
X133551700Y-61725000D01*
%TO.N,Net-(D11-DIN)*%
X135950000Y-63475000D02*
X134848300Y-63475000D01*
X115429700Y-100447000D02*
X115351700Y-100525000D01*
X115819400Y-100447000D02*
X115429700Y-100447000D01*
X114250000Y-100525000D02*
X115351700Y-100525000D01*
X127796400Y-70526900D02*
X118435800Y-70526900D01*
X134848300Y-63475000D02*
X127796400Y-70526900D01*
X118435800Y-70526900D02*
X118509700Y-70526900D01*
%TO.N,Net-(D8-DOUT)*%
X110948600Y-81325000D02*
X110915600Y-81358000D01*
X113650000Y-81325000D02*
X110948600Y-81325000D01*
X115588800Y-103334500D02*
X112885000Y-103334500D01*
X116648300Y-102275000D02*
X115588800Y-103334500D01*
X117750000Y-102275000D02*
X116648300Y-102275000D01*
X110915600Y-81358000D02*
X110915600Y-81325000D01*
X110915600Y-81325000D02*
X110915600Y-81358000D01*
%TO.N,LED Data*%
X117655000Y-29768500D02*
X116820000Y-29768500D01*
X99198100Y-82928600D02*
X99051700Y-83075000D01*
X99747000Y-82928600D02*
X99198100Y-82928600D01*
X97950000Y-83075000D02*
X99051700Y-83075000D01*
%TO.N,Net-(D5-DOUT)*%
X95852200Y-103071100D02*
X88125600Y-103071100D01*
X96648300Y-102275000D02*
X95852200Y-103071100D01*
X93107800Y-81565500D02*
X93348300Y-81325000D01*
X89176600Y-81565500D02*
X93107800Y-81565500D01*
X94450000Y-81325000D02*
X93348300Y-81325000D01*
X97750000Y-102275000D02*
X96648300Y-102275000D01*
%TO.N,Net-(D4-DOUT)*%
X115840200Y-82866900D02*
X116048300Y-83075000D01*
X115389600Y-82866900D02*
X115840200Y-82866900D01*
X117150000Y-83075000D02*
X116048300Y-83075000D01*
X94300000Y-61800000D02*
X95401700Y-61800000D01*
X96154400Y-61047300D02*
X95401700Y-61800000D01*
X110906200Y-61047300D02*
X96154400Y-61047300D01*
%TO.N,Net-(D4-DIN)*%
X97800000Y-63550000D02*
X98901700Y-63550000D01*
X112250000Y-63550000D02*
X113800000Y-62000000D01*
X98901700Y-63550000D02*
X112250000Y-63550000D01*
%TO.N,Net-(D3-DOUT)*%
X113878500Y-66069800D02*
X116198300Y-63750000D01*
X107367800Y-66069800D02*
X113878500Y-66069800D01*
X102859900Y-70577700D02*
X107367800Y-66069800D01*
X117300000Y-63750000D02*
X116198300Y-63750000D01*
X82119600Y-94757100D02*
X76151700Y-100725000D01*
X96180100Y-94757100D02*
X82119600Y-94757100D01*
X75050000Y-100725000D02*
X76151700Y-100725000D01*
X96180100Y-94757100D02*
X96875800Y-94757100D01*
X96875800Y-94757100D02*
X99066800Y-94757100D01*
X99066800Y-94757100D02*
X96875800Y-94757100D01*
%TO.N,Net-(D2-DOUT)*%
X72981600Y-103201700D02*
X72603300Y-102823400D01*
X76721600Y-103201700D02*
X72981600Y-103201700D01*
X77448300Y-102475000D02*
X76721600Y-103201700D01*
X72838300Y-82235000D02*
X73748300Y-81325000D01*
X72589900Y-82235000D02*
X72838300Y-82235000D01*
X74850000Y-81325000D02*
X73748300Y-81325000D01*
X78550000Y-102475000D02*
X77448300Y-102475000D01*
%TO.N,Net-(D1-DOUT)*%
X77248300Y-81973300D02*
X77248300Y-83075000D01*
X74436900Y-79161900D02*
X77248300Y-81973300D01*
X74436900Y-71529200D02*
X74436900Y-79161900D01*
X74645600Y-71320500D02*
X74436900Y-71529200D01*
X74645600Y-65814300D02*
X74645600Y-71320500D01*
X73798300Y-64967000D02*
X74645600Y-65814300D01*
X73798300Y-62000000D02*
X73798300Y-64967000D01*
X74900000Y-62000000D02*
X73798300Y-62000000D01*
X78350000Y-83075000D02*
X77248300Y-83075000D01*
%TO.N,+5V*%
X95921600Y-101251700D02*
X96648300Y-100525000D01*
X80178400Y-101251700D02*
X95921600Y-101251700D01*
X79651700Y-100725000D02*
X80178400Y-101251700D01*
X78550000Y-100725000D02*
X79651700Y-100725000D01*
X135950000Y-100725000D02*
X134848300Y-100725000D01*
X116820000Y-22148500D02*
X117655000Y-22148500D01*
X78350000Y-81325000D02*
X79451700Y-81325000D01*
X97950000Y-81325000D02*
X96848300Y-81325000D01*
X135700000Y-82400000D02*
X134598300Y-82400000D01*
X97199200Y-100525000D02*
X96648300Y-100525000D01*
X97199200Y-100525000D02*
X97750000Y-100525000D01*
X80178400Y-80598300D02*
X79451700Y-81325000D01*
X96121600Y-80598300D02*
X80178400Y-80598300D01*
X96848300Y-81325000D02*
X96121600Y-80598300D01*
X115321600Y-82051700D02*
X116048300Y-81325000D01*
X99778400Y-82051700D02*
X115321600Y-82051700D01*
X99051700Y-81325000D02*
X99778400Y-82051700D01*
X97950000Y-81325000D02*
X99051700Y-81325000D01*
X117150000Y-81325000D02*
X116048300Y-81325000D01*
X118300900Y-100525000D02*
X118851700Y-100525000D01*
X118300900Y-100525000D02*
X117750000Y-100525000D01*
X134121600Y-99998300D02*
X125651100Y-99998300D01*
X134848300Y-100725000D02*
X134121600Y-99998300D01*
X119378400Y-99998300D02*
X118851700Y-100525000D01*
X125651100Y-99998300D02*
X119378400Y-99998300D01*
X133523300Y-81325000D02*
X124864300Y-81325000D01*
X134598300Y-82400000D02*
X133523300Y-81325000D01*
X124864300Y-81325000D02*
X117150000Y-81325000D01*
X135950000Y-61725000D02*
X134848300Y-61725000D01*
X95971600Y-62526700D02*
X96698300Y-61800000D01*
X80028400Y-62526700D02*
X95971600Y-62526700D01*
X79501700Y-62000000D02*
X80028400Y-62526700D01*
X78400000Y-62000000D02*
X79501700Y-62000000D01*
X97800000Y-61800000D02*
X96698300Y-61800000D01*
X117850900Y-62000000D02*
X118401700Y-62000000D01*
X117850900Y-62000000D02*
X117300000Y-62000000D01*
X112347200Y-61800000D02*
X97800000Y-61800000D01*
X112874000Y-61273200D02*
X112347200Y-61800000D01*
X115471500Y-61273200D02*
X112874000Y-61273200D01*
X116198300Y-62000000D02*
X115471500Y-61273200D01*
X117300000Y-62000000D02*
X116198300Y-62000000D01*
X125717100Y-60998300D02*
X125165800Y-61549600D01*
X134121600Y-60998300D02*
X125717100Y-60998300D01*
X134848300Y-61725000D02*
X134121600Y-60998300D01*
X118852100Y-61549600D02*
X118401700Y-62000000D01*
X125165800Y-61549600D02*
X118852100Y-61549600D01*
X116124600Y-101048700D02*
X116648300Y-100525000D01*
X115834900Y-101048700D02*
X116124600Y-101048700D01*
X115631900Y-101251700D02*
X115834900Y-101048700D01*
X113325000Y-101251700D02*
X115631900Y-101251700D01*
X112598300Y-100525000D02*
X113325000Y-101251700D01*
X97750000Y-100525000D02*
X112598300Y-100525000D01*
X117750000Y-100525000D02*
X116648300Y-100525000D01*
%TO.N,Net-(D1-DIN)*%
X84246300Y-100525000D02*
X81447600Y-97726300D01*
X94250000Y-100525000D02*
X84246300Y-100525000D01*
X78400000Y-63750000D02*
X79501700Y-63750000D01*
X80341000Y-64589300D02*
X79501700Y-63750000D01*
X80372300Y-64589300D02*
X80341000Y-64589300D01*
X80373800Y-64590800D02*
X80372300Y-64589300D01*
X81444600Y-64590800D02*
X80373800Y-64590800D01*
%TO.N,GND*%
X75050000Y-102475000D02*
X76151700Y-102475000D01*
X76728400Y-63023300D02*
X76001700Y-63750000D01*
X92671600Y-63023300D02*
X76728400Y-63023300D01*
X93198300Y-63550000D02*
X92671600Y-63023300D01*
X130421600Y-101548300D02*
X131348300Y-102475000D01*
X116078400Y-101548300D02*
X130421600Y-101548300D01*
X115351700Y-102275000D02*
X116078400Y-101548300D01*
X114250000Y-102275000D02*
X115351700Y-102275000D01*
X132450000Y-102475000D02*
X131348300Y-102475000D01*
X93699200Y-102275000D02*
X93148300Y-102275000D01*
X93699200Y-102275000D02*
X94250000Y-102275000D01*
X114250000Y-102275000D02*
X113148300Y-102275000D01*
X130896600Y-63023300D02*
X131348300Y-63475000D01*
X115628400Y-63023300D02*
X130896600Y-63023300D01*
X114901700Y-63750000D02*
X115628400Y-63023300D01*
X113800000Y-63750000D02*
X114901700Y-63750000D01*
X132450000Y-63475000D02*
X131348300Y-63475000D01*
X93970000Y-63550000D02*
X93198300Y-63550000D01*
X93970000Y-63550000D02*
X94300000Y-63550000D01*
X112171500Y-64276800D02*
X112698300Y-63750000D01*
X96128500Y-64276800D02*
X112171500Y-64276800D01*
X95401700Y-63550000D02*
X96128500Y-64276800D01*
X94300000Y-63550000D02*
X95401700Y-63550000D01*
X113800000Y-63750000D02*
X112698300Y-63750000D01*
X112421600Y-101548300D02*
X113148300Y-102275000D01*
X96279500Y-101548300D02*
X112421600Y-101548300D01*
X95552800Y-102275000D02*
X96279500Y-101548300D01*
X94250000Y-102275000D02*
X95552800Y-102275000D01*
X74900000Y-63750000D02*
X75450900Y-63750000D01*
X75450900Y-63750000D02*
X76001700Y-63750000D01*
X77109600Y-65408700D02*
X80623700Y-65408700D01*
X75450900Y-63750000D02*
X77109600Y-65408700D01*
X114200900Y-83075000D02*
X114751700Y-83075000D01*
X114200900Y-83075000D02*
X113650000Y-83075000D01*
X96278400Y-83801700D02*
X95551700Y-83075000D01*
X111821600Y-83801700D02*
X96278400Y-83801700D01*
X112548300Y-83075000D02*
X111821600Y-83801700D01*
X113650000Y-83075000D02*
X112548300Y-83075000D01*
X94450000Y-83075000D02*
X95551700Y-83075000D01*
X123763500Y-24688500D02*
X127675000Y-28600000D01*
X117655000Y-24688500D02*
X123763500Y-24688500D01*
X115821900Y-84150000D02*
X132200000Y-84150000D01*
X114751700Y-83079800D02*
X115821900Y-84150000D01*
X114751700Y-83075000D02*
X114751700Y-83079800D01*
X92621600Y-101748300D02*
X77448300Y-101748300D01*
X93148300Y-102275000D02*
X92621600Y-101748300D01*
X76878400Y-101748300D02*
X76151700Y-102475000D01*
X77448300Y-101748300D02*
X76878400Y-101748300D01*
X117655000Y-24688500D02*
X116820000Y-24688500D01*
X115588500Y-25920000D02*
X92400000Y-25920000D01*
X116820000Y-24688500D02*
X115588500Y-25920000D01*
X74850000Y-83075000D02*
X75951700Y-83075000D01*
X77351000Y-84474300D02*
X75951700Y-83075000D01*
X80268700Y-84474300D02*
X77351000Y-84474300D01*
X81668000Y-83075000D02*
X94450000Y-83075000D01*
X80268700Y-84474300D02*
X81668000Y-83075000D01*
X79526300Y-98097000D02*
X80290300Y-98097000D01*
X77448300Y-100175000D02*
X79526300Y-98097000D01*
X77448300Y-101748300D02*
X77448300Y-100175000D01*
X80290300Y-98097000D02*
X80175600Y-98097000D01*
X80175600Y-98097000D02*
X80290300Y-98097000D01*
%TD*%
M02*
