M48
; DRILL file {KiCad 9.0.2-2.fc42} date 2025-06-07T11:28:42-0500
; FORMAT={-:-/ absolute / metric / decimal}
; #@! TF.CreationDate,2025-06-07T11:28:42-05:00
; #@! TF.GenerationSoftware,Kicad,Pcbnew,9.0.2-2.fc42
; #@! TF.FileFunction,Plated,1,2,PTH
FMAT,2
METRIC
; #@! TA.AperFunction,Plated,PTH,ViaDrill
T1C0.300
; #@! TA.AperFunction,Plated,PTH,ComponentDrill
T2C0.800
; #@! TA.AperFunction,Plated,PTH,ComponentDrill
T3C0.889
; #@! TA.AperFunction,Plated,PTH,ComponentDrill
T4C1.000
; #@! TA.AperFunction,Plated,PTH,ComponentDrill
T5C1.500
; #@! TA.AperFunction,Plated,PTH,ComponentDrill
T6C1.524
%
G90
G05
T1
X72.59Y-82.235
X72.603Y-102.823
X72.603Y-111.647
X80.269Y-84.474
X80.29Y-98.097
X80.624Y-65.409
X81.445Y-64.591
X81.448Y-97.726
X87.339Y-94.0
X88.126Y-103.071
X89.177Y-81.566
X93.364Y-112.145
X96.876Y-94.757
X99.747Y-82.929
X102.86Y-70.578
X105.021Y-29.662
X110.906Y-61.047
X110.916Y-81.358
X112.885Y-103.334
X115.39Y-82.867
X115.819Y-100.447
X116.834Y-41.032
X118.51Y-70.527
X122.772Y-51.237
X124.614Y-110.613
X124.864Y-81.325
X125.166Y-61.55
X125.651Y-99.998
X127.815Y-52.168
X128.598Y-114.588
X131.433Y-64.867
X133.961Y-84.14
T2
X84.95Y-107.59
X84.95Y-115.21
X88.5Y-107.59
X88.5Y-115.21
X92.05Y-107.59
X92.05Y-115.21
X95.6Y-107.59
X95.6Y-115.21
X99.15Y-107.59
X99.15Y-115.21
X102.7Y-107.59
X102.7Y-115.21
X106.25Y-107.59
X106.25Y-115.21
X109.8Y-107.59
X109.8Y-115.21
X113.35Y-107.59
X113.35Y-115.21
X116.9Y-107.59
X116.9Y-115.21
X120.45Y-107.59
X120.45Y-115.21
X124.0Y-107.59
X124.0Y-115.21
T3
X101.58Y-22.148
X101.58Y-24.688
X101.58Y-27.229
X101.58Y-29.768
X101.58Y-32.308
X101.58Y-34.849
X101.58Y-37.389
X116.82Y-22.148
X116.82Y-24.688
X116.82Y-27.229
X116.82Y-29.768
X116.82Y-32.308
X116.82Y-34.849
X116.82Y-37.389
T4
X92.4Y-25.92
X92.4Y-28.46
X92.4Y-31.0
X92.4Y-33.54
X127.675Y-26.1
X127.675Y-28.6
X127.675Y-31.1
X142.175Y-26.1
X142.175Y-31.1
T6
X73.19Y-51.025
X73.19Y-70.06
X73.19Y-89.26
X79.54Y-48.485
X79.54Y-67.52
X79.54Y-86.72
X92.27Y-51.025
X92.39Y-70.06
X92.39Y-89.26
X98.62Y-48.485
X98.74Y-67.52
X98.74Y-86.72
X111.39Y-51.025
X111.39Y-70.06
X111.39Y-89.26
X117.74Y-48.485
X117.74Y-67.52
X117.74Y-86.72
X130.39Y-51.06
X130.39Y-70.26
X130.39Y-89.46
X136.74Y-48.52
X136.74Y-67.72
X136.74Y-86.92
T5
G00X134.525Y-23.0
M15
G01X135.825Y-23.0
M16
G05
G00X134.525Y-34.2
M15
G01X135.825Y-34.2
M16
G05
M30
